<svg width="26" height="24" viewBox="0 0 26 24" fill="none" xmlns="http://www.w3.org/2000/svg">
<path fill-rule="evenodd" clip-rule="evenodd" d="M23.7908 8.03866L16.9432 7.04035L13.8827 0.834866C13.3343 -0.271247 11.7454 -0.285308 11.1924 0.834866L8.13183 7.04035L1.28424 8.03866C0.0562654 8.21677 -0.435861 9.73064 0.454654 10.5977L5.40873 15.4253L4.237 22.2447C4.02609 23.4774 5.32436 24.4007 6.41173 23.8242L12.5375 20.6043L18.6633 23.8242C19.7507 24.396 21.049 23.4774 20.8381 22.2447L19.6663 15.4253L24.6204 10.5977C25.5109 9.73064 25.0188 8.21677 23.7908 8.03866ZM18.6948 21.5813L17.5171 14.7271L22.4998 9.87159L15.6145 8.86778L12.5375 2.62901L9.46056 8.86778L2.57523 9.87159L7.558 14.7271L6.3803 21.5813L12.5375 18.3448L18.6948 21.5813Z" fill="#FFB238"/>
</svg>
