<svg width="26" height="24" viewBox="0 0 26 24" fill="none" xmlns="http://www.w3.org/2000/svg">
<path d="M8.7962 7.95406L8.2761 8.02989L1.4285 9.0282L1.42777 9.02831C1.0211 9.08729 0.855372 9.59217 1.15227 9.88125L1.15255 9.88153L6.10663 14.7091L6.48336 15.0762L6.39429 15.5946L5.22267 22.4134C5.15277 22.8219 5.58433 23.131 5.94332 22.9407L5.94646 22.939L12.0723 19.7191L12.5375 19.4746L13.0028 19.7191L19.1286 22.939L19.1288 22.9391C19.4945 23.1314 19.9208 22.8162 19.8525 22.4141L8.7962 7.95406ZM8.7962 7.95406L9.02868 7.48268L12.0891 1.27757L8.7962 7.95406ZM18.6808 15.5946L19.8524 22.4134L12.0892 1.2772C12.2704 0.911038 12.8001 0.903773 12.9864 1.2784C12.9865 1.27861 12.9866 1.27883 12.9867 1.27904L16.0464 7.48268L16.2789 7.95406L16.799 8.02989L23.6466 9.0282L23.6473 9.02831C24.054 9.08729 24.2197 9.59217 23.9228 9.88125L23.9225 9.88153L18.9684 14.7091L18.5917 15.0762L18.6808 15.5946Z" stroke="#FFB238" stroke-width="2"/>
</svg>
