<svg width="24" height="24" viewBox="0 0 24 24" fill="none" xmlns="http://www.w3.org/2000/svg">
<path d="M12.0022 0.000522438C11.4237 0.000522438 10.8452 0.313832 10.5476 0.94421L7.71761 6.93092L1.38916 7.8909C0.0605782 8.09267 -0.471094 9.79833 0.491436 10.7771L5.07005 15.4379L3.98991 22.0186C3.80988 23.1127 4.6428 24.0013 5.58732 24C5.83696 24 6.09379 23.9386 6.34343 23.802L12.001 20.6965L17.6598 23.802C18.8479 24.4549 20.2377 23.401 20.0121 22.0186L18.9295 15.4379L23.5093 10.7771C24.4695 9.79833 23.9402 8.09267 22.6116 7.8909L16.2832 6.93092L13.4532 0.94421C13.3212 0.659726 13.1148 0.4201 12.8578 0.253086C12.6008 0.0860718 12.3037 -0.00149704 12.001 0.000522438H12.0022ZM12.0022 18.7916V2.121L14.711 7.85205C14.8272 8.09784 14.999 8.31044 15.2114 8.47155C15.4238 8.63267 15.6705 8.73747 15.9303 8.77694L21.9911 9.69681L17.6057 14.1608C17.4177 14.3524 17.277 14.5887 17.1959 14.8496C17.1148 15.1105 17.0956 15.3881 17.1401 15.6585L18.1746 21.9622L12.7547 18.9858C12.5226 18.8584 12.2644 18.7917 12.0022 18.7916Z" fill="#FFCC16"/>
</svg>
