<svg xmlns="http://www.w3.org/2000/svg" width="144" height="130" viewBox="0 0 144 130" fill="none">
  <path opacity="0.1" d="M135.9 0.999998C114.6 0.999998 86.2 8.111 86.2 57.888V114.776C86.2 123.665 91.5676 129.119 100.4 128.998H128.8C137.675 128.998 143 123.665 143 114.975V72.11C143 63.2213 137.675 57.888 128.8 57.888C121.7 57.888 121.7 57.888 121.7 50.777V43.666C121.7 36.555 128.8 29.444 135.9 29.444C143 29.444 143 29.3871 143 22.1126V8.111C143 0.999998 143 0.999998 135.9 0.999998ZM50.7 0.999998C29.4 0.999998 1 8.111 1 57.888V114.776C1 123.665 6.3747 129.119 15.2 128.998H43.6C52.475 128.998 57.8 123.665 57.8 114.975V72.11C57.8 63.2213 52.475 57.888 43.6 57.888H38.275C38.275 41.8883 36.5 29.444 57.8 29.444V8.111C57.8 0.999998 57.8 0.999998 50.7 0.999998Z" stroke="white" stroke-width="2" stroke-linecap="round" stroke-linejoin="round"/>
</svg>